<?xml version="1.0" encoding="utf-8"?>
<!-- Generator: Adobe Illustrator 16.0.4, SVG Export Plug-In . SVG Version: 6.00 Build 0)  -->
<!DOCTYPE svg PUBLIC "-//W3C//DTD SVG 1.1//EN" "http://www.w3.org/Graphics/SVG/1.1/DTD/svg11.dtd">
<svg version="1.1" id="Layer_1" xmlns="http://www.w3.org/2000/svg" xmlns:xlink="http://www.w3.org/1999/xlink" x="0px" y="0px"
	 width="150.004px" height="23.969px" viewBox="0 0 150.004 23.969" enable-background="new 0 0 150.004 23.969"
	 xml:space="preserve">
<rect x="1.03" y="4.82" width="148.97" height="0.839"/>
<rect x="1.03" y="6.689" width="24.468" height="0.839"/>
<polygon points="0,0.075 0,0.912 1.163,0.912 1.163,3.796 2.093,3.796 2.093,0.912 3.256,0.912 3.256,0.075 "/>
<polygon points="7.049,0.075 7.049,1.494 4.606,1.494 4.606,0.075 3.676,0.075 3.676,3.796 4.606,3.796 4.606,2.377 7.049,2.377 
	7.049,3.796 7.979,3.796 7.979,0.075 "/>
<polygon points="8.553,0.075 8.553,3.796 11.2,3.796 11.2,2.959 9.483,2.959 9.483,2.331 10.875,2.331 10.875,1.54 9.483,1.54 
	9.483,0.912 11.2,0.912 11.2,0.075 "/>
<polygon points="16.314,0.075 16.314,2.401 16.175,2.401 14.007,0.075 12.918,0.075 12.918,3.796 13.849,3.796 13.849,1.415 
	13.988,1.415 16.193,3.796 17.245,3.796 17.245,0.075 "/>
<polygon points="17.818,0.075 17.818,3.796 20.465,3.796 20.465,2.959 18.749,2.959 18.749,2.331 20.14,2.331 20.14,1.54 
	18.749,1.54 18.749,0.912 20.465,0.912 20.465,0.075 "/>
<polygon points="26.998,0.075 26.3,3.038 26.082,3.038 25.24,0.075 23.49,0.075 22.756,3.038 22.537,3.038 21.732,0.075 
	20.695,0.075 21.816,3.796 23.472,3.796 24.253,0.833 24.514,0.833 25.37,3.796 27.026,3.796 28.054,0.075 "/>
<g>
	<defs>
		<rect id="SVGID_1_" y="0" width="150" height="23.968"/>
	</defs>
	<clipPath id="SVGID_2_">
		<use xlink:href="#SVGID_1_"  overflow="visible"/>
	</clipPath>
	<path clip-path="url(#SVGID_2_)" d="M29.411,1.21c0-0.786,0.628-1.21,1.437-1.21c0.47,0,0.986,0.121,1.279,0.289L31.951,1.08
		c-0.312-0.186-0.777-0.284-1.135-0.284c-0.289,0-0.484,0.111-0.484,0.307c0,0.605,1.907,0.265,1.907,1.517
		c0,0.666-0.475,1.251-1.465,1.251c-0.424,0-0.903-0.055-1.289-0.237l0.037-0.851c0.386,0.186,0.81,0.293,1.279,0.293
		c0.41,0,0.512-0.144,0.512-0.316C31.313,2.201,29.411,2.526,29.411,1.21"/>
	<path clip-path="url(#SVGID_2_)" d="M35.469,3.745c-0.298,0.112-0.549,0.126-0.968,0.126c-1.153,0-1.94-0.907-1.94-1.94
		c0-1.056,0.814-1.926,2.024-1.926c0.312,0,0.656,0.01,0.944,0.107L35.44,0.959c-0.325-0.107-0.558-0.122-0.827-0.122
		c-0.688,0-1.094,0.405-1.094,1.093c0,0.693,0.46,1.089,1.117,1.089c0.418,0,0.549-0.042,0.833-0.135V3.745z"/>
	<polygon clip-path="url(#SVGID_2_)" points="39.415,2.377 36.973,2.377 36.973,3.796 36.042,3.796 36.042,0.075 36.973,0.075 
		36.973,1.494 39.415,1.494 39.415,0.075 40.345,0.075 40.345,3.796 39.415,3.796 	"/>
	<path clip-path="url(#SVGID_2_)" d="M42.938,0c1.279,0,2.2,0.66,2.2,1.916c0,1.308-0.995,1.955-2.205,1.955
		c-1.219,0-2.215-0.656-2.215-1.95C40.719,0.703,41.626,0,42.938,0 M42.924,3.089c0.73,0,1.256-0.372,1.256-1.191
		c0-0.745-0.525-1.117-1.251-1.117s-1.251,0.363-1.251,1.145C41.677,2.712,42.203,3.089,42.924,3.089"/>
	<path clip-path="url(#SVGID_2_)" d="M47.666,0c1.279,0,2.201,0.66,2.201,1.916c0,1.308-0.996,1.955-2.205,1.955
		c-1.219,0-2.214-0.656-2.214-1.95C45.447,0.703,46.354,0,47.666,0 M47.652,3.089c0.73,0,1.255-0.372,1.255-1.191
		c0-0.745-0.525-1.117-1.251-1.117c-0.726,0-1.251,0.363-1.251,1.145C46.405,2.712,46.931,3.089,47.652,3.089"/>
	<polygon clip-path="url(#SVGID_2_)" points="50.268,0.075 51.198,0.075 51.198,2.912 54.079,2.912 54.079,3.797 50.268,3.797 	"/>
	<path clip-path="url(#SVGID_2_)" fill="#121212" d="M26.538,6.693h13.104c4.213,0,6.31,2.689,6.31,5.78
		c0,3.705-3.028,5.97-6.31,5.97h-8.871v5.187h-4.234V6.693z M30.771,10.504v4.339h8.257c2.075,0,2.541-1.185,2.541-2.265
		c0-0.889-0.465-2.075-2.541-2.075H30.771z"/>
	<path clip-path="url(#SVGID_2_)" fill="#121212" d="M55.118,20.391h-6.203L47.75,23.63h-4.509l6.795-16.937h4.361l6.373,16.937
		h-4.594L55.118,20.391z M50.143,16.94h3.875l-1.821-5.652L50.143,16.94z"/>
	<path clip-path="url(#SVGID_2_)" fill="#121212" d="M61.469,6.693h8.023c3.79,0,5.674,2.689,5.674,5.78
		c0,2.498-1.271,4.34-2.964,5.271l2.964,5.886h-4.764l-2.35-5.187h-2.351v5.187h-4.234V6.693z M65.703,10.504v4.339h2.752
		c1.651,0,2.329-1.185,2.329-2.265c0-0.889-0.677-2.075-2.329-2.075H65.703z"/>
	<path clip-path="url(#SVGID_2_)" fill="#121212" d="M76.14,11.859c0-3.578,2.858-5.504,6.542-5.504c2.138,0,4.488,0.55,5.822,1.312
		l-0.804,3.599c-1.418-0.846-3.536-1.291-5.166-1.291c-1.312,0-2.202,0.508-2.202,1.397c0,2.752,8.68,1.207,8.68,6.902
		c0,3.027-2.16,5.694-6.669,5.694c-1.927,0-4.107-0.253-5.864-1.079l0.169-3.875c1.757,0.847,3.684,1.333,5.822,1.333
		c1.863,0,2.329-0.656,2.329-1.439C84.799,16.369,76.14,17.85,76.14,11.859"/>
	<path clip-path="url(#SVGID_2_)" fill="#121212" d="M99.448,6.354c5.823,0,10.014,3.006,10.014,8.722
		c0,5.949-4.531,8.892-10.035,8.892c-5.546,0-10.077-2.985-10.077-8.87C89.35,9.551,93.478,6.354,99.448,6.354 M99.385,20.412
		c3.324,0,5.716-1.694,5.716-5.42c0-3.387-2.393-5.081-5.695-5.081c-3.302,0-5.695,1.651-5.695,5.208
		C93.711,18.697,96.104,20.412,99.385,20.412"/>
	<polygon clip-path="url(#SVGID_2_)" fill="#121212" points="115.686,11.753 114.627,11.753 114.627,23.63 110.393,23.63 
		110.393,6.693 116.342,6.693 127.542,17.385 128.601,17.385 128.601,6.693 132.834,6.693 132.834,23.63 127.711,23.63 	"/>
	<path clip-path="url(#SVGID_2_)" fill="#121212" d="M134.379,11.859c0-3.578,3.387-5.504,7.918-5.504
		c2.88,0,5.864,0.55,7.198,1.312l-0.805,3.599c-1.418-0.846-4.276-1.291-6.542-1.291c-2.435,0-3.578,0.508-3.578,1.397
		c0,2.921,11.433,0.657,11.433,6.902c0,3.027-2.583,5.694-8.045,5.694c-2.456,0-5.484-0.253-7.241-1.079l0.17-3.875
		c1.757,0.847,4.319,1.333,7.198,1.333c2.774,0,3.706-0.656,3.706-1.439C145.791,16.178,134.379,18.358,134.379,11.859"/>
</g>
</svg>
