<?xml version="1.0" encoding="utf-8"?>
<!-- Generator: Adobe Illustrator 16.0.4, SVG Export Plug-In . SVG Version: 6.00 Build 0)  -->
<!DOCTYPE svg PUBLIC "-//W3C//DTD SVG 1.1//EN" "http://www.w3.org/Graphics/SVG/1.1/DTD/svg11.dtd">
<svg version="1.1" id="Artwork" xmlns="http://www.w3.org/2000/svg" xmlns:xlink="http://www.w3.org/1999/xlink" x="0px" y="0px"
	 width="150px" height="37.142px" viewBox="0 0 150 37.142" enable-background="new 0 0 150 37.142" xml:space="preserve">
<path fill="#121212" d="M93.989,9.764h-1.846V8.78h-0.041c-0.492,0.793-1.34,1.176-2.161,1.176c-2.065,0-2.584-1.163-2.584-2.913
	V2.694h1.942v3.993c0,1.163,0.342,1.736,1.245,1.736c1.053,0,1.504-0.588,1.504-2.024V2.694h1.942V9.764z"/>
<path fill="#121212" d="M95.575,2.694h1.847v0.984h0.041c0.492-0.793,1.34-1.176,2.161-1.176c2.065,0,2.585,1.162,2.585,2.913v4.349
	h-1.942V5.771c0-1.162-0.342-1.736-1.245-1.736c-1.053,0-1.504,0.588-1.504,2.023v3.706h-1.942V2.694z"/>
<path fill="#121212" d="M105.749,1.6h-1.941V0h1.941V1.6z M103.808,2.694h1.941v7.07h-1.941V2.694z"/>
<path fill="#121212" d="M111.095,9.764h-2.161l-2.42-7.07h2.038l1.491,4.827h0.028l1.49-4.827h1.929L111.095,9.764z"/>
<path fill="#121212" d="M115.622,6.701c0.054,1.231,0.656,1.792,1.736,1.792c0.78,0,1.409-0.479,1.532-0.917h1.709
	c-0.547,1.668-1.709,2.38-3.309,2.38c-2.229,0-3.61-1.532-3.61-3.72c0-2.119,1.463-3.733,3.61-3.733
	c2.406,0,3.569,2.024,3.432,4.198H115.622z M118.781,5.47c-0.178-0.985-0.602-1.504-1.545-1.504c-1.231,0-1.586,0.958-1.613,1.504
	H118.781z"/>
<path fill="#121212" d="M121.638,2.694h1.847v1.312h0.027c0.355-0.889,1.312-1.504,2.256-1.504c0.137,0,0.301,0.027,0.424,0.068
	v1.805c-0.178-0.042-0.465-0.069-0.698-0.069c-1.422,0-1.915,1.026-1.915,2.271v3.186h-1.942V2.694z"/>
<path fill="#121212" d="M128.285,7.467c0.013,0.848,0.725,1.19,1.49,1.19c0.561,0,1.272-0.219,1.272-0.903
	c0-0.588-0.808-0.793-2.202-1.094c-1.122-0.246-2.243-0.643-2.243-1.888c0-1.805,1.559-2.27,3.077-2.27
	c1.546,0,2.968,0.519,3.118,2.256h-1.846c-0.055-0.752-0.629-0.958-1.327-0.958c-0.438,0-1.081,0.082-1.081,0.656
	c0,0.697,1.095,0.793,2.202,1.053c1.135,0.26,2.243,0.67,2.243,1.983c0,1.86-1.614,2.462-3.228,2.462
	c-1.641,0-3.241-0.616-3.323-2.489H128.285z"/>
<path fill="#121212" d="M135.86,1.6h-1.942V0h1.942V1.6z M133.918,2.694h1.942v7.07h-1.942V2.694z"/>
<path fill="#121212" d="M139.812,2.694h1.422v1.299h-1.422v3.501c0,0.657,0.164,0.821,0.82,0.821c0.205,0,0.396-0.014,0.602-0.055
	v1.518c-0.328,0.054-0.752,0.068-1.136,0.068c-1.189,0-2.229-0.273-2.229-1.682V3.993h-1.176V2.694h1.176v-2.12h1.942V2.694z"/>
<path fill="#121212" d="M145.924,10.653c-0.424,1.135-1.094,1.6-2.434,1.6c-0.397,0-0.794-0.027-1.19-0.069v-1.6
	c0.369,0.027,0.751,0.082,1.134,0.068c0.671-0.068,0.89-0.766,0.671-1.327l-2.489-6.632h2.079l1.6,4.841h0.027l1.546-4.841h2.01
	L145.924,10.653z"/>
<path fill="#121212" d="M90.475,15.967c2.229,0,3.665,1.478,3.665,3.733c0,2.243-1.436,3.72-3.665,3.72
	c-2.215,0-3.652-1.478-3.652-3.72C86.823,17.444,88.26,15.967,90.475,15.967z M90.475,21.957c1.326,0,1.723-1.136,1.723-2.257
	c0-1.135-0.396-2.27-1.723-2.27c-1.313,0-1.709,1.135-1.709,2.27C88.766,20.821,89.162,21.957,90.475,21.957z"/>
<path fill="#121212" d="M95.602,17.458H94.44v-1.299h1.162v-0.547c0-1.245,0.78-2.147,2.367-2.147c0.341,0,0.697,0.042,1.025,0.055
	v1.45c-0.232-0.027-0.464-0.041-0.711-0.041c-0.52,0-0.738,0.219-0.738,0.807v0.424h1.34v1.299h-1.34v5.771h-1.942V17.458z"/>
<path fill="#121212" d="M105.448,16.159h1.422v1.299h-1.422v3.501c0,0.657,0.164,0.82,0.82,0.82c0.206,0,0.396-0.013,0.602-0.055
	v1.518c-0.328,0.055-0.751,0.068-1.135,0.068c-1.189,0-2.229-0.274-2.229-1.683v-4.17h-1.177v-1.299h1.177v-2.12h1.941V16.159z"/>
<path fill="#121212" d="M107.923,13.464h1.942v3.679h0.041c0.493-0.793,1.34-1.176,2.065-1.176c2.064,0,2.584,1.163,2.584,2.913
	v4.349h-1.942v-3.993c0-1.163-0.342-1.737-1.245-1.737c-1.053,0-1.504,0.588-1.504,2.024v3.706h-1.942V13.464z"/>
<path fill="#121212" d="M117.332,20.165c0.054,1.231,0.656,1.792,1.737,1.792c0.779,0,1.408-0.479,1.531-0.917h1.709
	c-0.547,1.668-1.709,2.38-3.309,2.38c-2.229,0-3.61-1.532-3.61-3.72c0-2.12,1.463-3.733,3.61-3.733c2.406,0,3.569,2.024,3.432,4.198
	H117.332z M120.49,18.935c-0.178-0.984-0.602-1.504-1.545-1.504c-1.231,0-1.586,0.958-1.613,1.504H120.49z"/>
<path fill="#121212" d="M126.056,18.333c0.109-1.818,1.737-2.366,3.323-2.366c1.409,0,3.105,0.314,3.105,2.01v3.679
	c0,0.643,0.068,1.285,0.246,1.572h-1.969c-0.068-0.219-0.123-0.451-0.136-0.684c-0.616,0.643-1.519,0.875-2.38,0.875
	c-1.34,0-2.407-0.67-2.407-2.12c0-1.6,1.204-1.983,2.407-2.147c1.189-0.178,2.297-0.136,2.297-0.93c0-0.834-0.574-0.957-1.258-0.957
	c-0.738,0-1.217,0.301-1.285,1.066H126.056z M130.541,19.769c-0.328,0.287-1.012,0.301-1.614,0.41
	c-0.602,0.123-1.148,0.328-1.148,1.039c0,0.725,0.561,0.903,1.189,0.903c1.518,0,1.573-1.204,1.573-1.628V19.769z"/>
<path fill="#121212" d="M133.535,16.159h1.847v1.313h0.027c0.355-0.89,1.313-1.505,2.256-1.505c0.137,0,0.301,0.027,0.424,0.069
	v1.805c-0.178-0.041-0.465-0.068-0.697-0.068c-1.422,0-1.915,1.026-1.915,2.27v3.187h-1.942V16.159z"/>
<path fill="#121212" d="M141.645,16.159h1.422v1.299h-1.422v3.501c0,0.657,0.164,0.82,0.82,0.82c0.206,0,0.397-0.013,0.602-0.055
	v1.518c-0.328,0.055-0.752,0.068-1.135,0.068c-1.189,0-2.229-0.274-2.229-1.683v-4.17h-1.177v-1.299h1.177v-2.12h1.942V16.159z"/>
<path fill="#121212" d="M145.295,20.931c0.014,0.848,0.725,1.19,1.491,1.19c0.561,0,1.271-0.219,1.271-0.903
	c0-0.588-0.807-0.793-2.201-1.094c-1.122-0.247-2.243-0.643-2.243-1.887c0-1.805,1.56-2.271,3.077-2.271
	c1.545,0,2.968,0.52,3.118,2.257h-1.847c-0.055-0.752-0.629-0.957-1.326-0.957c-0.438,0-1.081,0.082-1.081,0.656
	c0,0.697,1.094,0.793,2.202,1.053c1.135,0.26,2.242,0.67,2.242,1.983c0,1.86-1.613,2.462-3.227,2.462
	c-1.642,0-3.241-0.616-3.323-2.489H145.295z"/>
<path fill="#121212" d="M87.412,26.718h1.941v9.764h-1.941V26.718z"/>
<path fill="#121212" d="M94.003,29.221c2.229,0,3.665,1.477,3.665,3.733c0,2.243-1.437,3.719-3.665,3.719
	c-2.215,0-3.651-1.477-3.651-3.719C90.352,30.698,91.788,29.221,94.003,29.221z M94.003,35.211c1.327,0,1.723-1.135,1.723-2.256
	c0-1.135-0.396-2.271-1.723-2.271c-1.313,0-1.709,1.135-1.709,2.271C92.293,34.076,92.69,35.211,94.003,35.211z"/>
<path fill="#121212" d="M98.72,29.413h1.847v0.984h0.041c0.493-0.793,1.341-1.176,2.161-1.176c2.065,0,2.585,1.162,2.585,2.913
	v4.349h-1.942V32.49c0-1.163-0.342-1.737-1.245-1.737c-1.053,0-1.504,0.588-1.504,2.024v3.706H98.72V29.413z"/>
<path fill="#121212" d="M111.67,35.58h-0.027c-0.451,0.766-1.244,1.094-2.147,1.094c-2.133,0-3.172-1.832-3.172-3.788
	c0-1.901,1.053-3.665,3.131-3.665c0.834,0,1.655,0.355,2.092,1.053h0.027v-3.556h1.942v9.764h-1.847V35.58z M109.975,30.684
	c-1.272,0-1.709,1.094-1.709,2.256c0,1.108,0.506,2.271,1.709,2.271c1.286,0,1.668-1.122,1.668-2.284
	C111.643,31.778,111.232,30.684,109.975,30.684z"/>
<path fill="#121212" d="M118.207,29.221c2.229,0,3.666,1.477,3.666,3.733c0,2.243-1.436,3.719-3.666,3.719
	c-2.215,0-3.651-1.477-3.651-3.719C114.555,30.698,115.991,29.221,118.207,29.221z M118.207,35.211c1.327,0,1.724-1.135,1.724-2.256
	c0-1.135-0.397-2.271-1.724-2.271c-1.312,0-1.709,1.135-1.709,2.271C116.497,34.076,116.894,35.211,118.207,35.211z"/>
<path fill="#121212" d="M122.924,29.413h1.846v0.984h0.041c0.492-0.793,1.34-1.176,2.161-1.176c2.065,0,2.584,1.162,2.584,2.913
	v4.349h-1.942V32.49c0-1.163-0.342-1.737-1.244-1.737c-1.053,0-1.504,0.588-1.504,2.024v3.706h-1.942V29.413z"/>
<path fill="#121212" d="M22.948,36.479h-6.387v-3.407h-0.142c-1.703,2.745-4.637,4.069-7.476,4.069C1.798,37.142,0,33.12,0,27.063
	V12.018h6.72v13.816c0,4.021,1.183,6.008,4.305,6.008c3.643,0,5.206-2.034,5.206-7.002V12.018h6.717V36.479z"/>
<path fill="#121212" d="M27.394,19.541c0.379-6.292,6.009-8.186,11.498-8.186c4.874,0,10.74,1.088,10.74,6.955v12.728
	c0,2.224,0.237,4.447,0.852,5.441h-6.813c-0.237-0.757-0.426-1.561-0.473-2.365c-2.129,2.224-5.252,3.027-8.233,3.027
	c-4.636,0-8.327-2.318-8.327-7.333c0-5.536,4.164-6.861,8.327-7.429c4.117-0.615,7.95-0.473,7.95-3.217
	c0-2.886-1.987-3.312-4.354-3.312c-2.555,0-4.21,1.041-4.448,3.69H27.394z M42.914,24.509c-1.136,0.993-3.501,1.041-5.583,1.419
	c-2.082,0.426-3.975,1.135-3.975,3.596c0,2.507,1.94,3.123,4.117,3.123c5.251,0,5.441-4.164,5.441-5.63V24.509z"/>
<path fill="#121212" d="M54.789,2.697h6.719v33.783h-6.719V2.697z"/>
<path fill="#121212" d="M76.364,19.73h-7.428v-7.287h7.428V19.73z M68.936,29.193h7.428v7.287h-7.428V29.193z"/>
</svg>
