<?xml version="1.0" encoding="utf-8"?>
<!-- Generator: Adobe Illustrator 16.0.4, SVG Export Plug-In . SVG Version: 6.00 Build 0)  -->
<!DOCTYPE svg PUBLIC "-//W3C//DTD SVG 1.1//EN" "http://www.w3.org/Graphics/SVG/1.1/DTD/svg11.dtd">
<svg version="1.1" id="_x36_5-100-100-35" xmlns="http://www.w3.org/2000/svg" xmlns:xlink="http://www.w3.org/1999/xlink" x="0px"
	 y="0px" width="150px" height="41.248px" viewBox="0 0.001 150 41.248" enable-background="new 0 0.001 150 41.248"
	 xml:space="preserve">
<polygon fill="#1D1D1B" points="0,23.241 0,24.046 67.348,24.046 67.611,23.241 "/>
<polygon fill="#1D1D1B" points="150,23.241 150,24.046 82.652,24.046 82.39,23.241 "/>
<g>
	<path fill="#1D1D1B" d="M26.832,29.697v0.315c-0.656,0.045-1.082,0.156-1.276,0.331c-0.195,0.176-0.292,0.576-0.292,1.205v5.468
		c0,0.896,0.122,1.596,0.367,2.097c0.457,0.913,1.322,1.368,2.596,1.368c1.397,0,2.334-0.468,2.812-1.402
		c0.268-0.523,0.4-1.331,0.4-2.421v-4.449c0-0.93-0.111-1.512-0.333-1.748c-0.223-0.237-0.645-0.385-1.269-0.448v-0.315h3.956v0.315
		c-0.663,0.072-1.094,0.233-1.298,0.48c-0.203,0.248-0.304,0.819-0.304,1.716v4.449c0,1.18-0.181,2.102-0.543,2.762
		c-0.667,1.221-1.937,1.829-3.806,1.829c-1.849,0-3.105-0.602-3.773-1.804c-0.362-0.646-0.542-1.497-0.542-2.554v-5.344
		c0-0.623-0.097-1.022-0.289-1.197c-0.192-0.176-0.611-0.287-1.256-0.338v-0.315H26.832z"/>
	<path fill="#1D1D1B" d="M35.011,40.688c0.706-0.071,1.16-0.231,1.36-0.479c0.201-0.248,0.301-0.821,0.301-1.724v-7.531
		l-0.234-0.274c-0.251-0.295-0.464-0.479-0.64-0.547c-0.175-0.069-0.438-0.109-0.788-0.122v-0.316h2.917l6.6,8.18v-5.681
		c0-0.934-0.14-1.543-0.418-1.824c-0.184-0.183-0.59-0.302-1.219-0.357v-0.315h4.016v0.315c-0.651,0.067-1.085,0.227-1.302,0.477
		c-0.217,0.252-0.326,0.823-0.326,1.72v8.998h-0.292l-7.562-9.373v6.655c0,0.935,0.137,1.542,0.41,1.826
		c0.178,0.183,0.575,0.308,1.193,0.374v0.318h-4.014V40.688z"/>
	<path fill="#1D1D1B" d="M48.145,40.688c0.696-0.049,1.146-0.152,1.352-0.31c0.207-0.16,0.309-0.567,0.309-1.226v-7.605
		c0-0.629-0.102-1.034-0.309-1.215c-0.205-0.178-0.656-0.288-1.352-0.321v-0.316h5.059v0.316c-0.696,0.033-1.146,0.142-1.353,0.321
		c-0.206,0.181-0.309,0.586-0.309,1.215v7.605c0,0.658,0.103,1.065,0.309,1.226c0.207,0.157,0.657,0.261,1.353,0.31v0.318h-5.059
		V40.688z"/>
	<path fill="#1D1D1B" d="M59.049,29.697v0.291c-0.429,0.006-0.719,0.034-0.875,0.086c-0.272,0.09-0.408,0.272-0.408,0.55
		c0,0.143,0.048,0.339,0.146,0.595c0.098,0.255,0.278,0.678,0.544,1.266l2.676,5.952l2.43-6.441
		c0.107-0.286,0.188-0.527,0.244-0.725c0.056-0.196,0.083-0.358,0.083-0.484c0-0.333-0.142-0.561-0.425-0.678
		c-0.167-0.067-0.442-0.107-0.826-0.119v-0.291h3.497v0.291c-0.36,0.05-0.629,0.148-0.8,0.292c-0.262,0.22-0.521,0.655-0.777,1.312
		l-3.785,9.616h-0.257l-4.225-9.396c-0.357-0.797-0.642-1.292-0.856-1.488c-0.215-0.195-0.527-0.307-0.938-0.334v-0.291h4.554
		V29.697z"/>
	<path fill="#1D1D1B" d="M67.413,40.688c0.629-0.065,1.036-0.177,1.223-0.335c0.186-0.157,0.279-0.559,0.279-1.199v-7.605
		c0-0.606-0.092-1.002-0.276-1.188c-0.184-0.188-0.592-0.303-1.227-0.348v-0.315h9.083l0.058,2.444h-0.435
		c-0.144-0.754-0.361-1.239-0.651-1.462c-0.29-0.222-0.935-0.333-1.937-0.333h-2.327c-0.251,0-0.406,0.041-0.465,0.121
		c-0.058,0.081-0.088,0.232-0.088,0.454v3.815h2.638c0.729,0,1.193-0.107,1.394-0.323c0.201-0.217,0.362-0.654,0.485-1.314h0.401
		v3.95h-0.4c-0.129-0.662-0.292-1.101-0.493-1.313c-0.2-0.216-0.663-0.322-1.385-0.322h-2.638v4.231c0,0.34,0.107,0.54,0.322,0.603
		c0.214,0.06,0.857,0.091,1.927,0.091c1.16,0,2.015-0.126,2.566-0.379c0.552-0.254,1.047-0.867,1.487-1.84h0.477l-0.776,2.888h-9.24
		v-0.319H67.413z"/>
	<path fill="#1D1D1B" d="M78.609,40.688c0.656-0.059,1.066-0.188,1.228-0.381c0.161-0.193,0.242-0.646,0.242-1.354v-7.404
		c0-0.602-0.091-0.995-0.271-1.181c-0.181-0.187-0.581-0.304-1.199-0.355v-0.315h4.733c0.986,0,1.808,0.124,2.463,0.373
		c1.247,0.475,1.87,1.343,1.87,2.609c0,0.851-0.276,1.504-0.83,1.958c-0.554,0.456-1.307,0.756-2.257,0.9l3.522,4.34
		c0.217,0.264,0.434,0.458,0.651,0.579c0.216,0.122,0.494,0.199,0.836,0.231v0.318h-2.757l-4.276-5.27l-0.749,0.044v3.369
		c0,0.632,0.095,1.033,0.288,1.203c0.191,0.169,0.61,0.281,1.256,0.335v0.318h-4.75V40.688L78.609,40.688z M84.453,34.763
		c0.906-0.373,1.359-1.073,1.359-2.101c0-0.988-0.406-1.663-1.22-2.024c-0.434-0.194-1.011-0.292-1.729-0.292
		c-0.483,0-0.78,0.035-0.888,0.103c-0.108,0.071-0.163,0.233-0.163,0.489v4.207C83.043,35.101,83.923,34.974,84.453,34.763z"/>
	<path fill="#1D1D1B" d="M90.718,37.567c0.287,0.768,0.626,1.382,1.017,1.836c0.677,0.797,1.52,1.194,2.523,1.194
		c0.545,0,1.017-0.173,1.415-0.519c0.397-0.344,0.595-0.826,0.595-1.444c0-0.557-0.199-1.039-0.599-1.452
		c-0.262-0.262-0.812-0.654-1.65-1.178l-1.459-0.91c-0.439-0.278-0.789-0.56-1.051-0.842c-0.484-0.54-0.726-1.136-0.726-1.787
		c0-0.862,0.288-1.581,0.859-2.153c0.573-0.573,1.334-0.859,2.279-0.859c0.389,0,0.859,0.097,1.406,0.288
		c0.548,0.192,0.862,0.289,0.939,0.289c0.212,0,0.359-0.051,0.439-0.15c0.079-0.101,0.143-0.242,0.187-0.425h0.352l0.375,3.639
		h-0.409c-0.278-1.097-0.726-1.861-1.343-2.296c-0.611-0.435-1.221-0.651-1.821-0.651c-0.467,0-0.875,0.139-1.224,0.413
		c-0.348,0.275-0.522,0.657-0.522,1.148c0,0.44,0.133,0.814,0.4,1.127c0.267,0.318,0.681,0.646,1.242,0.995l1.504,0.925
		c0.938,0.579,1.601,1.111,1.985,1.595c0.382,0.488,0.571,1.069,0.571,1.735c0,0.897-0.337,1.646-1.015,2.247
		c-0.678,0.603-1.54,0.901-2.593,0.901c-0.529,0-1.08-0.1-1.658-0.299c-0.576-0.201-0.906-0.303-0.988-0.303
		c-0.201,0-0.336,0.062-0.406,0.186c-0.069,0.122-0.115,0.253-0.137,0.392h-0.376l-0.509-3.641L90.718,37.567L90.718,37.567z"/>
	<path fill="#1D1D1B" d="M99.21,40.688c0.696-0.049,1.147-0.152,1.352-0.31c0.207-0.16,0.31-0.567,0.31-1.226v-7.605
		c0-0.629-0.103-1.034-0.31-1.215c-0.205-0.178-0.655-0.288-1.352-0.321v-0.316h5.06v0.316c-0.696,0.033-1.148,0.142-1.355,0.321
		c-0.203,0.181-0.308,0.586-0.308,1.215v7.605c0,0.658,0.104,1.065,0.308,1.226c0.208,0.157,0.659,0.261,1.355,0.31v0.318h-5.06
		V40.688z"/>
	<path fill="#1D1D1B" d="M105.595,29.697h9.667l0.094,2.904h-0.409c-0.203-0.914-0.455-1.508-0.767-1.782
		c-0.307-0.274-0.956-0.413-1.948-0.413h-0.951v8.749c0,0.658,0.103,1.065,0.31,1.225c0.205,0.158,0.655,0.262,1.352,0.311v0.319
		h-4.984V40.69c0.724-0.055,1.175-0.174,1.354-0.355c0.179-0.183,0.268-0.644,0.268-1.382v-8.547h-0.96
		c-0.948,0-1.589,0.137-1.934,0.409c-0.343,0.273-0.6,0.868-0.772,1.786h-0.416L105.595,29.697z"/>
	<path fill="#1D1D1B" d="M121.188,29.697v0.315c-0.402-0.01-0.701,0.02-0.901,0.092c-0.2,0.073-0.3,0.229-0.3,0.468
		c0,0.072,0.016,0.163,0.049,0.271s0.108,0.252,0.226,0.43l2.517,3.691l2.456-3.75c0.1-0.161,0.164-0.294,0.193-0.399
		c0.032-0.105,0.048-0.183,0.048-0.234c0-0.245-0.132-0.406-0.393-0.484c-0.154-0.05-0.421-0.078-0.8-0.084v-0.315h3.734v0.315
		c-0.344,0.02-0.653,0.12-0.926,0.31c-0.421,0.294-0.897,0.842-1.425,1.645l-2.524,3.855v3.325c0,0.661,0.105,1.074,0.32,1.237
		s0.695,0.267,1.438,0.304v0.318h-5.215v-0.318c0.773-0.044,1.255-0.159,1.439-0.344c0.187-0.185,0.28-0.652,0.28-1.396v-2.968
		l-2.237-3.279c-0.773-1.13-1.315-1.856-1.627-2.176s-0.689-0.49-1.136-0.514v-0.315H121.188z"/>
</g>
<path fill="#1D1D1B" d="M0.114,4.917h11l0.105,3.306h-0.465c-0.229-1.039-0.518-1.716-0.87-2.029
	C9.533,5.88,8.795,5.723,7.668,5.723H6.584v9.956c0,0.751,0.117,1.215,0.352,1.395c0.234,0.179,0.747,0.296,1.54,0.354v0.361H2.803
	v-0.36c0.823-0.063,1.337-0.198,1.539-0.407c0.203-0.208,0.304-0.731,0.304-1.57V5.723H3.553c-1.076,0-1.81,0.156-2.2,0.467
	C0.964,6.5,0.672,7.177,0.475,8.223H0L0.114,4.917z"/>
<path fill="#1D1D1B" d="M12.461,17.428c0.715-0.076,1.179-0.204,1.391-0.383s0.318-0.634,0.318-1.366V7.026
	c0-0.691-0.104-1.142-0.313-1.355c-0.209-0.212-0.675-0.343-1.396-0.394V4.917h10.336L22.862,7.7h-0.494
	c-0.165-0.857-0.412-1.412-0.742-1.664c-0.33-0.253-1.064-0.378-2.204-0.378h-2.648c-0.286,0-0.462,0.045-0.529,0.138
	c-0.068,0.091-0.1,0.264-0.1,0.516v4.343h3.002c0.83,0,1.358-0.123,1.586-0.369c0.228-0.245,0.412-0.744,0.551-1.494h0.456v4.493
	h-0.456c-0.146-0.753-0.332-1.251-0.561-1.496c-0.228-0.244-0.753-0.366-1.577-0.366h-3.002v4.816c0,0.387,0.121,0.615,0.366,0.685
	s0.975,0.103,2.193,0.103c1.319,0,2.293-0.144,2.92-0.432c0.627-0.288,1.192-0.987,1.693-2.095h0.542l-0.884,3.287H12.461V17.428z"
	/>
<path fill="#1D1D1B" d="M24.287,17.428c0.521-0.058,0.917-0.194,1.187-0.413c0.269-0.218,0.807-0.826,1.612-1.821l3.003-3.717
	l-2.131-3.124C27.029,6.993,26.376,6.146,26,5.813c-0.376-0.332-0.879-0.511-1.505-0.536V4.917h5.854v0.361
	c-0.564,0.02-0.931,0.057-1.101,0.114c-0.258,0.082-0.387,0.261-0.387,0.539c0,0.177,0.062,0.388,0.188,0.635
	c0.063,0.126,0.151,0.272,0.266,0.436l2.006,2.908l2.183-2.655c0.321-0.386,0.538-0.696,0.651-0.932
	c0.069-0.14,0.104-0.266,0.104-0.38c0-0.285-0.138-0.475-0.415-0.57c-0.17-0.058-0.479-0.088-0.929-0.096V4.917h4.61v0.361
	c-0.519,0.012-0.922,0.096-1.208,0.248c-0.449,0.246-1.007,0.78-1.671,1.599l-2.812,3.526l3.686,5.337
	c0.394,0.576,0.722,0.941,0.984,1.096c0.261,0.155,0.646,0.27,1.152,0.346v0.361h-5.72v-0.362c0.549-0.013,0.933-0.061,1.149-0.144
	c0.216-0.083,0.325-0.243,0.325-0.479c0-0.205-0.145-0.544-0.433-1.016s-1.086-1.666-2.392-3.582l-2.283,2.867
	c-0.333,0.422-0.565,0.73-0.697,0.926c-0.208,0.31-0.311,0.541-0.311,0.69c0,0.277,0.162,0.473,0.489,0.586
	c0.195,0.07,0.526,0.12,0.994,0.151v0.361H24.29v-0.363H24.287z"/>
<path fill="#1D1D1B" d="M37.414,17.789v-0.361c0.5-0.058,0.875-0.244,1.125-0.565c0.251-0.32,0.68-1.195,1.287-2.626l4.054-9.548
	h0.387l4.847,11.03c0.322,0.731,0.581,1.183,0.774,1.356c0.194,0.172,0.519,0.292,0.974,0.354v0.361h-4.947v-0.361
	c0.568-0.051,0.936-0.112,1.1-0.185c0.165-0.072,0.247-0.25,0.247-0.535c0-0.094-0.032-0.261-0.095-0.501
	c-0.063-0.239-0.152-0.491-0.266-0.756l-0.779-1.872h-5.128c-0.505,1.273-0.807,2.049-0.906,2.33
	c-0.099,0.28-0.147,0.502-0.147,0.667c0,0.327,0.133,0.554,0.398,0.68c0.165,0.076,0.475,0.132,0.93,0.17v0.361h-3.854V17.789z
	 M45.793,12.792l-2.231-5.359l-2.239,5.359H45.793z"/>
<path fill="#1D1D1B" d="M51.965,13.874c0.329,0.874,0.715,1.571,1.157,2.09c0.771,0.907,1.73,1.359,2.875,1.359
	c0.621,0,1.155-0.196,1.607-0.589c0.452-0.393,0.678-0.941,0.678-1.644c0-0.633-0.227-1.185-0.683-1.653
	c-0.297-0.298-0.923-0.743-1.877-1.339l-1.659-1.036c-0.5-0.317-0.898-0.635-1.196-0.959c-0.55-0.614-0.827-1.292-0.827-2.033
	c0-0.982,0.327-1.799,0.979-2.451c0.653-0.653,1.518-0.979,2.594-0.979c0.443,0,0.977,0.109,1.601,0.328
	c0.624,0.219,0.98,0.328,1.069,0.328c0.241,0,0.408-0.057,0.5-0.172c0.091-0.113,0.163-0.275,0.214-0.484h0.398l0.428,4.142h-0.465
	c-0.317-1.247-0.825-2.118-1.524-2.612c-0.7-0.494-1.391-0.742-2.076-0.742c-0.531,0-0.996,0.156-1.393,0.47
	c-0.395,0.314-0.593,0.749-0.593,1.307c0,0.501,0.152,0.929,0.456,1.284c0.303,0.361,0.774,0.737,1.414,1.13l1.708,1.056
	c1.07,0.658,1.824,1.262,2.263,1.813c0.432,0.558,0.648,1.216,0.648,1.976c0,1.02-0.384,1.872-1.154,2.556
	c-0.77,0.684-1.752,1.026-2.949,1.026c-0.601,0-1.23-0.113-1.885-0.342c-0.655-0.228-1.031-0.342-1.126-0.342
	c-0.228,0-0.382,0.07-0.46,0.209c-0.08,0.139-0.132,0.288-0.158,0.446H52.1l-0.58-4.142L51.965,13.874L51.965,13.874z"/>
<path fill="#1D1D1B" d="M90.815,13.874c0.331,0.874,0.715,1.571,1.156,2.09c0.771,0.907,1.73,1.359,2.874,1.359
	c0.621,0,1.156-0.196,1.61-0.589c0.45-0.393,0.676-0.941,0.676-1.644c0-0.633-0.226-1.185-0.682-1.653
	c-0.296-0.298-0.922-0.743-1.878-1.339l-1.659-1.036c-0.498-0.317-0.897-0.635-1.195-0.959c-0.551-0.614-0.826-1.292-0.826-2.033
	c0-0.982,0.326-1.799,0.978-2.451c0.652-0.652,1.519-0.978,2.595-0.978c0.443,0,0.977,0.109,1.601,0.329
	c0.623,0.218,0.979,0.328,1.069,0.328c0.241,0,0.407-0.057,0.5-0.171c0.09-0.113,0.163-0.276,0.213-0.485h0.399l0.427,4.142h-0.465
	c-0.317-1.247-0.825-2.118-1.525-2.612c-0.699-0.494-1.391-0.741-2.075-0.741c-0.531,0-0.996,0.156-1.393,0.47
	c-0.396,0.314-0.593,0.749-0.593,1.307c0,0.501,0.151,0.928,0.455,1.284c0.303,0.361,0.773,0.738,1.413,1.13l1.708,1.056
	c1.069,0.658,1.823,1.262,2.263,1.813c0.433,0.558,0.648,1.216,0.648,1.976c0,1.02-0.385,1.873-1.155,2.556
	c-0.768,0.684-1.751,1.026-2.949,1.026c-0.602,0-1.229-0.113-1.885-0.342c-0.655-0.228-1.031-0.342-1.125-0.342
	c-0.229,0-0.382,0.07-0.461,0.209c-0.078,0.139-0.132,0.288-0.158,0.446H90.95l-0.58-4.142h0.445V13.874z"/>
<path fill="#1D1D1B" d="M100.995,4.917h11.002l0.104,3.306h-0.464c-0.229-1.039-0.519-1.716-0.872-2.029
	c-0.35-0.313-1.089-0.471-2.217-0.471h-1.083v9.956c0,0.751,0.117,1.215,0.352,1.395c0.235,0.179,0.748,0.296,1.54,0.354v0.361
	h-5.672v-0.36c0.822-0.063,1.336-0.198,1.54-0.407c0.201-0.208,0.304-0.731,0.304-1.57V5.723h-1.094
	c-1.075,0-1.809,0.156-2.199,0.467c-0.39,0.311-0.683,0.988-0.878,2.033h-0.477L100.995,4.917z"/>
<path fill="#1D1D1B" d="M112.282,17.789v-0.361c0.502-0.058,0.876-0.244,1.128-0.565c0.247-0.32,0.678-1.195,1.285-2.626
	l4.054-9.548h0.387l4.848,11.03c0.322,0.731,0.58,1.183,0.773,1.356c0.192,0.172,0.52,0.292,0.973,0.354v0.361h-4.946v-0.361
	c0.57-0.051,0.936-0.112,1.101-0.185c0.163-0.072,0.246-0.25,0.246-0.535c0-0.094-0.031-0.261-0.096-0.501
	c-0.062-0.239-0.151-0.491-0.266-0.756l-0.778-1.872h-5.128c-0.504,1.273-0.806,2.049-0.905,2.33
	c-0.099,0.28-0.147,0.502-0.147,0.667c0,0.327,0.135,0.554,0.4,0.68c0.163,0.076,0.475,0.132,0.929,0.17v0.361h-3.856V17.789z
	 M120.662,12.792l-2.229-5.359l-2.239,5.359H120.662z"/>
<path fill="#1D1D1B" d="M125.936,4.917h11.002l0.104,3.306h-0.465c-0.229-1.039-0.518-1.716-0.869-2.029
	c-0.353-0.313-1.091-0.471-2.218-0.471h-1.084v9.956c0,0.751,0.117,1.215,0.352,1.395c0.234,0.179,0.747,0.296,1.539,0.354v0.361
	h-5.671v-0.36c0.823-0.063,1.337-0.198,1.539-0.407c0.203-0.208,0.303-0.731,0.303-1.57V5.723h-1.092
	c-1.076,0-1.809,0.156-2.201,0.467c-0.388,0.311-0.681,0.988-0.878,2.033h-0.476L125.936,4.917z"/>
<path fill="#1D1D1B" d="M138.574,17.428c0.716-0.076,1.18-0.204,1.391-0.383c0.213-0.18,0.319-0.634,0.319-1.366V7.026
	c0-0.691-0.104-1.142-0.313-1.355c-0.21-0.212-0.676-0.343-1.396-0.394V4.917h10.334l0.068,2.783h-0.493
	c-0.164-0.857-0.413-1.412-0.742-1.664c-0.33-0.253-1.064-0.378-2.203-0.378h-2.649c-0.286,0-0.464,0.045-0.529,0.138
	c-0.066,0.091-0.101,0.264-0.101,0.516v4.343h3.003c0.83,0,1.36-0.123,1.587-0.369c0.229-0.245,0.411-0.744,0.552-1.494h0.454v4.493
	H147.4c-0.146-0.753-0.334-1.251-0.562-1.496c-0.229-0.244-0.756-0.366-1.579-0.366h-3.002v4.816c0,0.387,0.123,0.615,0.367,0.685
	c0.247,0.07,0.976,0.103,2.195,0.103c1.318,0,2.291-0.144,2.92-0.432c0.627-0.288,1.192-0.987,1.692-2.095h0.542l-0.883,3.287
	h-10.518V17.428L138.574,17.428z"/>
<path fill="#1D1D1B" d="M78.296,10.095h-0.017L75,0.001l-3.279,10.093h-0.017H61.108l8.585,6.237l-3.279,10.094L75,20.188
	l8.551,6.212h0.001l0.034,0.024l-3.271-10.069l-0.009-0.025l8.53-6.197l0,0l0.056-0.04L78.296,10.095L78.296,10.095z M79.449,16.054
	L75,14.63l7.193,9.881L75,19.285v-4.654l-7.198,9.884l2.749-8.457L75,14.63l0,0l-11.646-3.806h8.895L75,14.63V2.363l2.749,8.461
	L75,14.63l11.639-3.806L79.449,16.054z"/>
</svg>
