<?xml version="1.0" encoding="utf-8"?>
<!-- Generator: Adobe Illustrator 16.0.4, SVG Export Plug-In . SVG Version: 6.00 Build 0)  -->
<!DOCTYPE svg PUBLIC "-//W3C//DTD SVG 1.1//EN" "http://www.w3.org/Graphics/SVG/1.1/DTD/svg11.dtd">
<svg version="1.1" id="Layer_1" xmlns="http://www.w3.org/2000/svg" xmlns:xlink="http://www.w3.org/1999/xlink" x="0px" y="0px"
	 width="150px" height="48.785px" viewBox="0.06 0.16 150 48.785" enable-background="new 0.06 0.16 150 48.785"
	 xml:space="preserve">
<g>
	<defs>
		<rect id="SVGID_1_" x="0.06" y="0.16" width="150" height="48.785"/>
	</defs>
	<clipPath id="SVGID_2_">
		<use xlink:href="#SVGID_1_"  overflow="visible"/>
	</clipPath>
	<g clip-path="url(#SVGID_2_)">
		<g>
			<defs>
				<rect id="SVGID_3_" x="0.028" y="0.076" width="150.285" height="48.869"/>
			</defs>
			<clipPath id="SVGID_4_">
				<use xlink:href="#SVGID_3_"  overflow="visible"/>
			</clipPath>
			<path clip-path="url(#SVGID_4_)" fill="#FFFFFF" d="M20.498,45.328C11.445,39.944,0.028,32.121,0.028,18.305V3.717
				C4.204,2.137,10.657,0.16,20.497,0.16c9.954,0,16.785,2.152,20.469,3.557v14.588C40.966,32.237,29.107,40.266,20.498,45.328"/>
		</g>
	</g>
	<g clip-path="url(#SVGID_2_)">
		<path fill="#211F22" d="M26.655,26.437c0-0.31,0.255-0.791,0.255-1.22c0-0.511-0.626-0.674-1.112-0.741
			c-1.023-0.142-1.365-0.095-1.365-0.321c0-0.156,0.138-0.319,0.324-0.587c0.275-0.396,0.931-0.545,1.28-0.593
			c0.459-0.063,0.969-0.125,1.579-0.125c0.683,0,1.264,0.103,1.531,0.148c0.627,0.109,0.725,0.372,0.725,0.666
			c0,0.063,0,0.22,0,0.294c0,0.297-0.243,0.449-0.681,0.544c-0.109,0.024-0.263,0.052-0.336,0.067
			c-0.317,0.065-0.71,0.129-0.849,0.529c-0.299,0.86-0.819,1.534-1.205,1.518C26.73,26.614,26.655,26.56,26.655,26.437
			 M27.558,12.577c-0.037-0.021-0.169-0.07-0.169-0.201c0-0.151,0.109-0.308,0.333-0.606c0.512-0.688,1.217-1.53,1.475-1.53
			c0.126,0,0.205,0.086,0.36,0.381c0.093,0.175,0.172,0.467,0.172,0.745c0,0.914-0.315,1.556-0.803,2.281
			C28.681,13.413,28.229,12.96,27.558,12.577z M12.52,14.28c0.23,0,0.406-0.152,0.753-0.537c0.778-0.86,1.529-0.975,1.529-1.342
			c0-0.164-0.105-0.324-0.214-0.495c-0.83-1.296-1.184-1.996-1.677-2.936c-0.179-0.341-0.412-0.573-0.59-0.573
			c-0.286,0-0.589,0.334-0.765,0.621c-0.248,0.404-0.494,0.86-0.494,1.274c0,0.627,0.154,1.77,0.414,2.502
			C11.758,13.585,12.167,14.28,12.52,14.28z M21.866,17.274c0-0.535-0.602-1.319-1.652-1.319c-0.933,0-1.646,0.705-1.833,1.255
			c0.224,0.433,0.439,0.89,1.334,1.161c0.119,0.036,0.237,0.039,0.237,0.14c0,0.144-0.151,0.215-0.47,0.215
			c-1.015,0-1.618-0.415-1.885-0.765c-0.262,0.037-0.566,0.139-0.946,0.152c-0.31,0.011-0.452-0.196-0.452-0.473
			c0-0.179,0.053-0.375,0.159-0.593c0.059-0.121,0.121-0.246,0.167-0.334c0.157-0.308,0.398-0.995,1.324-1.522
			c0.107-0.062,0.388-0.231,0.531-0.315c0.524-0.308,0.921-0.381,1.544-0.381c0.048,0,0.394,0,0.458,0
			c0.747,0,1.129,0.21,1.458,0.487c0.669,0.563,1.038,0.87,1.038,1.288c0,0.464-0.025,0.82-0.396,1.31
			c-0.318,0.417-0.785,0.695-1.086,0.695c-0.085,0-0.11-0.045-0.11-0.093c0-0.064,0.07-0.096,0.144-0.154
			C21.676,17.825,21.788,17.471,21.866,17.274z M26.363,31.621c-0.176,0.044-0.52,0.129-2.053,0.129
			c-2.323,0-2.717-0.571-2.717-1.023c0-0.756,3.331-1.289,4.643-1.289c1.257,0,1.812,0.403,1.812,0.711
			C28.049,30.506,27.482,31.351,26.363,31.621z M12.962,38.422c2.416,1.886,5.004,3.555,7.537,5.068
			c0.022-2.277-0.051-3.619,1.49-5.23c0.624-0.652,1.266-1.316,1.847-1.918c0.438-0.453,0.792-0.792,0.999-0.792
			c0.147,0,0.214,0.078,0.214,0.276c0,0.203,0.09,0.949,0.553,1.843c0.576,1.11,1.426,1.253,1.698,1.316
			c6.597-4.965,12.114-11.466,12.114-20.713c0-5.077,0-13.477,0-13.477c-1.627-0.553-8.31-3.116-18.917-3.116
			C9.89,1.68,3.207,4.243,1.58,4.796c0,0,0,8.399,0,13.477c0,4.064,1.066,7.598,2.821,10.705c0.175-1.872,1.441-2.76,1.441-4.599
			c0-1.284-0.363-2.094-0.363-3.168c0-1.943,2.623-5.939,3.983-7.568c0.04-0.048,0.128-0.162,0.237-0.162
			c0.098,0,0.171,0.069,0.231,0.16c0.138,0.212,0.198,0.324,0.346,0.324c0.149,0,0.207-0.083,0.207-0.216
			c0-0.338-0.392-0.903-0.392-3.111c0-1.544,0.359-1.872,1.319-2.811c0.176-0.172,0.713-0.688,1.225-0.688
			c0.57,0,0.853,0.337,1.204,0.694c0.593,0.604,1.42,1.672,1.554,1.842c0.038,0.047,0.071,0.091,0.152,0.091
			c0.274,0,0.503-0.083,1.695-0.083c2.166,0,5.429,0.34,7.106,0.889c0.864,0.283,1.044,0.477,1.272,0.477
			c0.112,0,0.122-0.073,0.122-0.131c0-0.109-0.228-0.285-0.228-0.434c0-0.098,0.08-0.171,0.159-0.214
			c1.25-0.671,2.319-1.179,3.296-1.179c0.568,0,0.849,0.492,1.088,0.979c0.187,0.38,0.388,0.89,0.388,1.413
			c0,1.325-0.506,2.132-0.91,2.698c0.193,0.198,0.466,0.498,0.633,0.697c0.297,0.354,0.653,0.818,0.653,1.299
			c0,0.208-0.101,0.534-0.159,0.792c-0.026,0.116-0.127,0.349-0.33,0.345c-0.182-0.003-0.229-0.202-0.236-0.378
			c-0.001-0.036,0-0.116,0-0.133c0-0.381-0.105-0.898-0.46-1.26c-0.407-0.417-0.78-0.719-1.251-0.719c-0.028,0-0.128,0-0.161,0
			c-0.774,0-1.126,0.338-1.339,0.545c-0.232,0.227-0.413,0.529-0.413,0.937c0,0.234,0.159,0.511,0.371,0.935
			c0.125,0.25,0.446,0.846,0.621,1.152c0.153,0.268,0.349,0.362,0.569,0.362c0.539,0,1.009-0.075,1.009-0.237
			c0-0.044-0.024-0.082-0.098-0.082c-0.031,0-0.105,0.009-0.172,0.009c-0.705,0-1.081-0.896-1.434-1.709
			c0.269-0.263,0.574-0.532,1.126-0.532c0.701,0,1.162,0.471,1.162,1.083c0,0.305-0.094,0.559-0.149,0.673
			c-0.028,0.058-0.043,0.093-0.043,0.126c0,0.096,0.121,0.115,0.313,0.16c0.068,0.016,0.198,0.046,0.278,0.069
			c0.206,0.06,0.425,0.238,0.518,0.487c0.062,0.165,0.202,0.544,0.233,0.636c0.116,0.347,0.303,0.852,0.303,1.458
			c0,0.616-0.042,0.802-0.211,1.427c-0.217,0.8-0.312,1.104-0.347,1.543c0.074,0.138,0.081,0.177,0.114,0.256
			c0.121,0.255,0.278,0.72,0.278,1.223c0,0.135,0,0.399,0,0.415c0,0.801-0.32,1.425-0.666,1.894
			c-0.27,0.364-0.656,0.876-0.877,1.161c-0.144,0.172-0.337,0.296-0.553,0.296c-0.103,0-0.225-0.033-0.347-0.064
			c-0.134-0.034-0.421-0.106-0.543-0.138c-0.472-0.12-0.646-0.426-0.798-0.842c-0.022-0.062-0.094-0.238-0.116-0.294
			c-0.112-0.29-0.176-0.473-0.355-0.473c-0.134,0-0.262,0.087-0.396,0.288c-0.471,0.709-0.727,0.966-1.555,1.17
			c-0.29,0.071-0.878,0.194-1.207,0.267c-0.497,0.11-1.383,0.343-1.882,0.343c-0.106,0-0.218-0.006-0.332-0.019
			c-0.681-0.096-1.164-0.141-2.012-1.152c-1.166-1.392-1.045-1.587-1.115-3.467c-0.007-0.21-0.077-0.472-0.294-0.472
			c-0.196,0-0.28,0.398-0.352,0.963c-0.083,0.663-0.236,1.352-0.562,1.352c-0.229,0-0.381-0.034-0.732-0.149
			c-0.423-0.138-1.479-0.495-2.035-0.678c-0.755-0.25-1.479-0.448-1.771-1.117c-0.137-0.315-0.39-0.901-0.519-1.206
			c-0.09-0.215-0.156-0.327-0.297-0.327c-0.201,0-0.246,0.239-0.268,0.427c-0.025,0.213-0.08,0.706-0.106,1.013
			c-0.113,1.309-0.375,1.866-0.929,2.595c-0.254,0.335-0.495,0.675-0.776,1.048c-0.581,0.77-0.931,1.558-0.912,3.049
			c0.001,0.097-0.006,0.653,0,0.909C8.658,34.354,9.221,35.442,12.962,38.422z"/>
		<path fill="#A5AAAD" d="M30.545,18.802L30.545,18.802c0.062,0.165,0.202,0.544,0.233,0.636c0.116,0.347,0.303,0.851,0.303,1.458
			c0,0.616-0.042,0.802-0.211,1.427c-0.217,0.8-0.312,1.104-0.347,1.543c-0.061-0.124-1.199-2.088-1.286-2.248
			c-0.086-0.16-0.16-0.314-0.16-0.499c0-0.201,0.086-0.322,0.329-0.474c0.146-0.092,0.334-0.2,0.462-0.265
			c0.585-0.301,0.727-0.672,0.727-1.068C30.596,19.145,30.572,18.974,30.545,18.802 M25.587,21.942
			c0.062,0.154,0.114,0.331,0.114,0.462c0,0.295-0.073,0.386-0.236,0.56c-0.098,0.087-0.206,0.178-0.305,0.27
			c-0.162,0.085-0.307,0.194-0.404,0.334c-0.186,0.268-0.324,0.431-0.324,0.587c0,0.048,0.016,0.084,0.051,0.112
			c-0.226-0.167-0.316-0.425-0.316-0.656c0-0.207,0.067-0.315,0.067-0.509c0-0.164-0.046-0.325-0.074-0.417
			c-0.315-1.056-0.847-2.312-1.174-3.167c-0.333-0.87-0.596-1.347-0.973-1.347c-0.209,0-0.396,0.103-0.616,0.103
			c0.301,0,0.767-0.278,1.085-0.695c0.371-0.49,0.396-0.845,0.396-1.31c0-0.197-0.082-0.369-0.238-0.554
			c0.478,0.486,0.783,1.105,1.107,1.792C24.457,19.011,25.072,20.657,25.587,21.942z M8.606,32.134
			c-0.006-0.256,0.001-0.812,0-0.909c-0.019-1.491,0.332-2.279,0.912-3.049c0.281-0.373,0.522-0.712,0.776-1.048
			c0.554-0.729,0.816-1.286,0.929-2.595c0.026-0.307,0.081-0.799,0.106-1.013c0.022-0.188,0.067-0.427,0.268-0.427
			c0.141,0,0.207,0.112,0.297,0.326c0.129,0.305,0.382,0.891,0.519,1.206c0.292,0.67,1.015,0.868,1.771,1.117
			c0.556,0.184,1.611,0.54,2.035,0.678c0.351,0.115,0.504,0.149,0.732,0.149c0.326,0,0.479-0.688,0.562-1.352
			c0.071-0.565,0.156-0.963,0.352-0.963c0.218,0,0.287,0.262,0.294,0.472c0.07,1.879-0.05,2.075,1.115,3.466
			c0.848,1.011,1.332,1.058,2.012,1.152c-0.253-0.075-0.578-0.368-0.578-0.982c0-0.112,0-0.602,0-0.676
			c0-0.337,0.041-0.682,0.208-1.07c0.079-0.184,0.171-0.513,0.258-0.715c0.148-0.345,0.077-0.432,0.077-0.674
			c0-0.257-0.084-0.511-0.287-1.125c-0.104-0.315-0.245-0.775-0.38-1.152c-0.422-1.179-0.593-1.457-2.003-1.643
			c-0.453-0.06-2.43-0.34-2.844-0.399c-1.582-0.225-2.82-0.299-3.465-1.359c-0.771-1.266-0.693-2.809-1.433-2.809
			c-0.352,0-0.538,0.393-0.538,0.966c0,0.602,0.227,1.576,0.227,3.272c0,1.466-0.137,1.875-0.991,2.954
			c-0.221,0.28-0.52,0.692-0.71,0.932c-0.636,0.799-0.917,1.248-0.879,2.178C8.049,29.448,8.431,31.217,8.606,32.134z
			 M24.735,37.793c0.054-0.587,0.313-1.568,0.313-1.967v0c0-0.198-0.066-0.276-0.214-0.276c-0.207,0-0.561,0.338-0.999,0.792
			c-0.581,0.602-1.223,1.266-1.847,1.918c-1.541,1.611-1.468,2.954-1.49,5.23c1.712-1.033,3.278-2.025,4.438-2.816
			C24.765,39.726,24.621,39.045,24.735,37.793z"/>
		<path fill="#211F22" d="M49.2,6.626h-1.236V4.799h5.755c3.026,0,4.606,1.59,4.606,3.851c0,2.686-2.117,3.851-4.606,3.851h-1.905
			v3.008h1.236v1.827h-5.086v-1.827H49.2V6.626 M53.45,10.673c1.307,0,2.161-0.751,2.161-2.023c0-1.154-0.746-2.024-2.196-2.024
			h-1.6v4.047H53.45z M61.522,13.216c0.071,1.487,1.217,2.4,2.973,2.4c1.545,0,2.493-0.427,2.901-0.592v1.936
			c-0.381,0.153-1.425,0.591-3.456,0.591c-3.618,0-5.139-2.256-5.139-4.853c0-2.919,1.773-4.943,4.709-4.943
			c3.223,0,4.531,2.436,4.531,5.462H61.522z M65.319,11.497c0-1.29-0.734-2.023-1.898-2.023c-1.146,0-1.809,0.752-1.916,2.023
			H65.319z M130.936,13.216c0.072,1.487,1.218,2.4,2.973,2.4c1.544,0,2.493-0.427,2.901-0.592v1.936
			c-0.382,0.153-1.426,0.591-3.457,0.591c-3.618,0-5.14-2.256-5.14-4.853c0-2.919,1.773-4.943,4.711-4.943
			c3.223,0,4.53,2.436,4.53,5.462H130.936z M134.733,11.497c0-1.29-0.734-2.023-1.898-2.023c-1.146,0-1.809,0.752-1.916,2.023
			H134.733z M70.365,9.796h-1.218V7.969h3.44l0.068,1.226h0.036c0.166-0.259,0.982-1.441,2.878-1.441
			c2.377,0,3.625,1.675,3.625,3.735v4.02h1.074v1.827h-4.602v-1.827h1.02v-3.587c0-1.307-0.724-2.018-1.914-2.018
			c-1.075,0-1.901,0.604-1.901,2.018v3.587h1.075v1.827h-4.603v-1.827h1.021L70.365,9.796L70.365,9.796z M82.575,9.796h-1.217V7.969
			h3.44l0.068,1.226h0.035c0.166-0.259,0.982-1.441,2.878-1.441c2.376,0,3.624,1.675,3.624,3.735v4.02h1.074v1.827h-4.602v-1.827
			h1.021v-3.587c0-1.307-0.724-2.018-1.915-2.018c-1.074,0-1.9,0.604-1.9,2.018v3.587h1.075v1.827h-4.603v-1.827h1.021L82.575,9.796
			L82.575,9.796z M122.544,5.963h2.507v2.006h2.507v1.827h-2.507v4.172c0,1.256,0.439,1.647,1.478,1.647
			c0.389,0,0.921-0.104,1.117-0.143v1.779c-0.207,0.062-1.117,0.298-2.063,0.298c-1.844,0-3.039-0.991-3.039-2.639V9.796h-1.271
			V7.969h1.271V5.963L122.544,5.963z M105.65,5.963h2.507v2.006h2.507v1.827h-2.507v4.172c0,1.256,0.439,1.647,1.478,1.647
			c0.389,0,0.921-0.104,1.117-0.143v1.779c-0.206,0.062-1.117,0.298-2.063,0.298c-1.844,0-3.039-0.991-3.039-2.639V9.796h-1.271
			V7.969h1.271L105.65,5.963L105.65,5.963z M117.555,11.372c0-1.293-0.628-1.791-1.894-1.791c-0.808,0-1.388,0.21-1.554,0.269v1.254
			h-2.032V8.721c0.336-0.19,1.84-0.967,3.555-0.967c2.608,0,4.288,1.062,4.288,3.686c0,1.54,0,4.069,0,4.069h0.968v1.827h-3.033
			l-0.073-1.276h-0.036c-0.187,0.261-0.869,1.49-2.983,1.49c-2.113,0-3.134-1.253-3.134-2.722c0-1.782,1.368-3.008,4.802-3.008
			c0.15,0,0.969,0,1.126,0L117.555,11.372L117.555,11.372z M116.821,13.359c-2.042,0-2.686,0.43-2.686,1.236
			c0,0.555,0.395,1.128,1.379,1.128c1.002,0,2.005-0.787,2.005-2.364H116.821z M100.601,6.716c-0.19-0.067-0.924-0.305-1.595-0.305
			c-1.458,0-2.042,0.792-2.042,1.49c0,0.913,0.678,1.336,1.461,1.533l1.244,0.326c1.752,0.465,3.692,1.209,3.692,3.806
			c0,2.381-1.531,3.983-4.917,3.983c-1.31,0-2.671-0.143-4.271-0.698v-3.313h2.25v1.617c0.358,0.099,1.378,0.353,2.241,0.353
			c1.33,0,1.974-0.555,1.974-1.504c0-0.785-0.444-1.353-2.043-1.783l-1.07-0.294c-2.45-0.663-3.283-1.842-3.283-3.775
			c0-1.988,1.327-3.567,4.695-3.567c1.446,0,2.892,0.251,3.913,0.663v2.99h-2.249V6.716L100.601,6.716z M55.411,33.62
			c-0.475,0.237-1.424,0.474-2.641,0.474c-2.819,0-4.941-1.781-4.941-5.06c0-3.13,2.122-5.251,5.223-5.251
			c1.247,0,2.033,0.267,2.374,0.445l-0.312,1.053c-0.49-0.236-1.187-0.416-2.017-0.416c-2.345,0-3.903,1.5-3.903,4.125
			c0,2.448,1.41,4.021,3.843,4.021c0.787,0,1.587-0.164,2.107-0.417L55.411,33.62z M63.318,30.297c0,2.656-1.84,3.812-3.576,3.812
			c-1.944,0-3.442-1.423-3.442-3.694c0-2.403,1.573-3.812,3.561-3.812C61.923,26.602,63.318,28.101,63.318,30.297z M57.621,30.371
			c0,1.572,0.904,2.76,2.181,2.76c1.246,0,2.182-1.172,2.182-2.79c0-1.216-0.609-2.76-2.151-2.76
			C58.288,27.581,57.621,29.006,57.621,30.371z M64.964,23.412h1.306v10.534h-1.306V23.412z M68.465,23.412h1.306v10.534h-1.306
			V23.412z M72.694,30.593c0.029,1.764,1.157,2.492,2.463,2.492c0.935,0,1.499-0.163,1.988-0.371l0.223,0.934
			c-0.459,0.208-1.246,0.445-2.388,0.445c-2.21,0-3.531-1.453-3.531-3.62c0-2.167,1.275-3.872,3.367-3.872
			c2.345,0,2.967,2.062,2.967,3.382c0,0.268-0.028,0.475-0.044,0.609H72.694z M76.521,29.658c0.015-0.83-0.341-2.121-1.81-2.121
			c-1.321,0-1.899,1.216-2.003,2.121H76.521z M85.586,26.765c-0.03,0.52-0.059,1.098-0.059,1.974v4.17
			c0,1.646-0.326,2.656-1.023,3.278c-0.697,0.652-1.706,0.861-2.612,0.861c-0.859,0-1.81-0.208-2.388-0.594l0.327-0.994
			c0.474,0.297,1.215,0.563,2.107,0.563c1.334,0,2.314-0.697,2.314-2.507v-0.801h-0.03c-0.401,0.668-1.172,1.203-2.285,1.203
			c-1.781,0-3.057-1.515-3.057-3.502c0-2.433,1.587-3.812,3.234-3.812c1.247,0,1.929,0.652,2.24,1.245h0.03l0.059-1.083H85.586z
			 M84.236,29.6c0-0.224-0.015-0.417-0.074-0.594c-0.238-0.756-0.875-1.379-1.826-1.379c-1.246,0-2.136,1.053-2.136,2.714
			c0,1.41,0.711,2.583,2.121,2.583c0.801,0,1.528-0.506,1.81-1.335c0.075-0.224,0.104-0.474,0.104-0.698L84.236,29.6L84.236,29.6z
			 M88.42,30.593c0.029,1.764,1.157,2.492,2.463,2.492c0.935,0,1.499-0.163,1.988-0.371l0.223,0.934
			c-0.46,0.208-1.247,0.445-2.39,0.445c-2.21,0-3.531-1.453-3.531-3.62c0-2.167,1.276-3.872,3.368-3.872
			c2.344,0,2.967,2.062,2.967,3.382c0,0.268-0.03,0.475-0.045,0.609H88.42z M92.248,29.658c0.015-0.83-0.341-2.121-1.81-2.121
			c-1.321,0-1.899,1.216-2.003,2.121H92.248z M104.769,30.297c0,2.656-1.84,3.812-3.576,3.812c-1.944,0-3.443-1.423-3.443-3.694
			c0-2.403,1.573-3.812,3.561-3.812C103.374,26.602,104.769,28.101,104.769,30.297z M99.072,30.371c0,1.572,0.904,2.76,2.18,2.76
			c1.247,0,2.182-1.172,2.182-2.79c0-1.216-0.609-2.76-2.152-2.76C99.739,27.581,99.072,29.006,99.072,30.371z M106.548,33.946
			v-6.188h-1.009v-0.994h1.009v-0.342c0-1.008,0.223-1.928,0.831-2.507c0.49-0.475,1.143-0.667,1.751-0.667
			c0.46,0,0.86,0.104,1.112,0.208l-0.178,1.009c-0.192-0.089-0.459-0.164-0.83-0.164c-1.114,0-1.396,0.979-1.396,2.077v0.386h1.736
			v0.994h-1.736v6.188H106.548L106.548,33.946z M115.553,30.801l-1.038,3.146h-1.335l3.397-10h1.558l3.412,10h-1.38l-1.068-3.146
			H115.553z M118.833,29.793l-0.979-2.88c-0.222-0.652-0.371-1.246-0.52-1.824h-0.029c-0.149,0.593-0.312,1.201-0.505,1.809
			l-0.979,2.895H118.833z M122.926,29.006c0-0.846-0.014-1.574-0.059-2.241h1.143l0.045,1.41h0.059
			c0.327-0.965,1.113-1.572,1.989-1.572c0.147,0,0.252,0.013,0.37,0.044v1.231c-0.133-0.031-0.267-0.045-0.445-0.045
			c-0.92,0-1.573,0.698-1.75,1.676c-0.03,0.178-0.06,0.386-0.06,0.609v3.828h-1.291V29.006L122.926,29.006z M129.707,24.704v2.062
			h1.87v0.994h-1.87v3.873c0,0.89,0.252,1.394,0.98,1.394c0.34,0,0.593-0.044,0.756-0.089l0.059,0.979
			c-0.251,0.103-0.652,0.178-1.157,0.178c-0.608,0-1.097-0.192-1.409-0.549c-0.372-0.385-0.505-1.023-0.505-1.869v-3.917h-1.113
			v-0.994h1.113v-1.721L129.707,24.704z M132.867,32.611c0.385,0.253,1.068,0.52,1.721,0.52c0.949,0,1.395-0.475,1.395-1.068
			c0-0.624-0.37-0.965-1.335-1.32c-1.291-0.461-1.899-1.173-1.899-2.034c0-1.156,0.934-2.106,2.477-2.106
			c0.727,0,1.365,0.208,1.766,0.445l-0.327,0.949c-0.282-0.177-0.801-0.415-1.469-0.415c-0.772,0-1.202,0.447-1.202,0.979
			c0,0.594,0.43,0.861,1.365,1.217c1.246,0.474,1.884,1.098,1.884,2.166c0,1.262-0.979,2.151-2.685,2.151
			c-0.787,0-1.514-0.192-2.018-0.49L132.867,32.611z M52.355,48.781l-0.104-0.905h-0.045c-0.4,0.564-1.171,1.069-2.195,1.069
			c-1.454,0-2.196-1.024-2.196-2.063c0-1.736,1.543-2.685,4.318-2.671v-0.148c0-0.593-0.164-1.662-1.632-1.662
			c-0.668,0-1.364,0.208-1.869,0.535l-0.297-0.861c0.593-0.385,1.454-0.637,2.359-0.637c2.196,0,2.73,1.499,2.73,2.937v2.686
			c0,0.623,0.03,1.23,0.119,1.721H52.355z M52.162,45.116c-1.424-0.029-3.042,0.222-3.042,1.618c0,0.845,0.564,1.247,1.232,1.247
			c0.935,0,1.528-0.594,1.735-1.202c0.045-0.133,0.074-0.282,0.074-0.416V45.116z M55.529,43.543c0-0.741-0.015-1.349-0.06-1.943
			h1.157l0.074,1.187h0.03c0.356-0.682,1.187-1.349,2.374-1.349c0.994,0,2.537,0.593,2.537,3.056v4.288h-1.306v-4.14
			c0-1.156-0.43-2.121-1.662-2.121c-0.86,0-1.529,0.608-1.751,1.335c-0.059,0.163-0.089,0.385-0.089,0.607v4.317h-1.305V43.543z
			 M69.964,38.248v8.68c0,0.638,0.016,1.365,0.06,1.854h-1.172l-0.059-1.246h-0.03c-0.401,0.801-1.276,1.41-2.448,1.41
			c-1.736,0-3.072-1.469-3.072-3.651c-0.015-2.388,1.469-3.856,3.22-3.856c1.098,0,1.84,0.519,2.166,1.099h0.029v-4.289H69.964
			L69.964,38.248z M68.659,44.523c0-0.164-0.014-0.386-0.059-0.549c-0.193-0.831-0.905-1.514-1.884-1.514
			c-1.35,0-2.151,1.187-2.151,2.775c0,1.453,0.712,2.656,2.121,2.656c0.875,0,1.677-0.579,1.915-1.558
			c0.044-0.18,0.059-0.357,0.059-0.565V44.523z M76.937,45.636l-1.039,3.146h-1.335l3.398-10h1.558l3.413,10h-1.38l-1.067-3.146
			H76.937z M80.215,44.628l-0.978-2.879c-0.223-0.652-0.371-1.246-0.52-1.824h-0.029c-0.148,0.593-0.312,1.201-0.505,1.809
			l-0.979,2.895H80.215z M84.309,43.84c0-0.845-0.013-1.573-0.058-2.241h1.143l0.045,1.411h0.058
			c0.328-0.965,1.114-1.573,1.988-1.573c0.148,0,0.252,0.014,0.372,0.044v1.231c-0.134-0.03-0.268-0.044-0.446-0.044
			c-0.92,0-1.573,0.697-1.75,1.675c-0.03,0.179-0.06,0.387-0.06,0.609v3.828h-1.292V43.84L84.309,43.84z M94.132,48.515
			c-0.342,0.178-1.098,0.415-2.062,0.415c-2.166,0-3.576-1.469-3.576-3.665c0-2.21,1.514-3.813,3.858-3.813
			c0.771,0,1.454,0.193,1.81,0.372l-0.296,1.008c-0.312-0.178-0.801-0.342-1.513-0.342c-1.647,0-2.537,1.218-2.537,2.715
			c0,1.662,1.068,2.687,2.493,2.687c0.741,0,1.231-0.193,1.602-0.356L94.132,48.515z M95.659,38.248h1.306v4.481h0.03
			c0.208-0.372,0.534-0.698,0.935-0.92c0.385-0.222,0.845-0.371,1.335-0.371c0.964,0,2.507,0.593,2.507,3.071v4.273h-1.305v-4.124
			c0-1.158-0.43-2.136-1.662-2.136c-0.846,0-1.514,0.592-1.751,1.304c-0.075,0.179-0.089,0.372-0.089,0.624v4.333h-1.306V38.248z
			 M105.348,39.583c0.015,0.444-0.312,0.801-0.831,0.801c-0.46,0-0.786-0.356-0.786-0.801c0-0.461,0.341-0.816,0.816-0.816
			C105.036,38.767,105.348,39.122,105.348,39.583z M103.893,41.6h1.305v7.181h-1.305V41.6z M108.937,39.539v2.062h1.87v0.994h-1.87
			v3.873c0,0.89,0.252,1.394,0.979,1.394c0.341,0,0.594-0.044,0.756-0.09l0.06,0.98c-0.251,0.104-0.653,0.178-1.157,0.178
			c-0.609,0-1.098-0.193-1.41-0.55c-0.371-0.385-0.504-1.022-0.504-1.868v-3.917h-1.113V41.6h1.113v-1.72L108.937,39.539z
			 M112.913,45.429c0.03,1.765,1.157,2.492,2.463,2.492c0.934,0,1.498-0.163,1.987-0.371l0.223,0.935
			c-0.46,0.208-1.247,0.445-2.389,0.445c-2.211,0-3.531-1.453-3.531-3.621c0-2.166,1.276-3.872,3.368-3.872
			c2.344,0,2.966,2.062,2.966,3.383c0,0.267-0.029,0.474-0.044,0.608H112.913z M116.741,44.493c0.015-0.83-0.342-2.121-1.811-2.121
			c-1.321,0-1.899,1.216-2.003,2.121H116.741z M124.737,48.515c-0.341,0.178-1.098,0.415-2.062,0.415
			c-2.167,0-3.577-1.469-3.577-3.665c0-2.21,1.514-3.813,3.858-3.813c0.772,0,1.455,0.193,1.81,0.372l-0.296,1.008
			c-0.312-0.178-0.801-0.342-1.514-0.342c-1.647,0-2.537,1.218-2.537,2.715c0,1.662,1.068,2.687,2.493,2.687
			c0.741,0,1.231-0.193,1.602-0.356L124.737,48.515z M128.03,39.539v2.062h1.87v0.994h-1.87v3.873c0,0.89,0.252,1.394,0.979,1.394
			c0.341,0,0.593-0.044,0.756-0.09l0.059,0.98c-0.251,0.104-0.653,0.178-1.157,0.178c-0.607,0-1.097-0.193-1.409-0.55
			c-0.372-0.385-0.505-1.022-0.505-1.868v-3.917h-1.112V41.6h1.112v-1.72L128.03,39.539z M137.376,46.822
			c0,0.743,0.015,1.395,0.06,1.959h-1.157l-0.074-1.171h-0.031c-0.34,0.577-1.098,1.335-2.373,1.335
			c-1.128,0-2.478-0.623-2.478-3.145v-4.2h1.305v3.977c0,1.365,0.416,2.284,1.602,2.284c0.875,0,1.484-0.607,1.721-1.187
			c0.075-0.193,0.119-0.43,0.119-0.667v-4.407h1.306L137.376,46.822L137.376,46.822z M139.542,43.84
			c0-0.845-0.015-1.573-0.059-2.241h1.142l0.045,1.411h0.058c0.327-0.965,1.113-1.573,1.988-1.573c0.148,0,0.252,0.014,0.371,0.044
			v1.231c-0.133-0.03-0.268-0.044-0.445-0.044c-0.921,0-1.573,0.697-1.751,1.675c-0.03,0.179-0.06,0.387-0.06,0.609v3.828h-1.291
			V43.84z M144.972,45.429c0.029,1.765,1.157,2.492,2.463,2.492c0.935,0,1.499-0.163,1.988-0.371l0.223,0.935
			c-0.461,0.208-1.246,0.445-2.39,0.445c-2.21,0-3.53-1.453-3.53-3.621c0-2.166,1.275-3.872,3.367-3.872
			c2.345,0,2.968,2.062,2.968,3.383c0,0.267-0.03,0.474-0.046,0.608H144.972z M148.8,44.493c0.015-0.83-0.342-2.121-1.811-2.121
			c-1.32,0-1.898,1.216-2.003,2.121H148.8z"/>
	</g>
</g>
</svg>
